<?xml version="1.0" encoding="UTF-8"?>
<svg xmlns="http://www.w3.org/2000/svg" viewBox="240 740 660 145" style="background: transparent;">





<path d="M0 0 C5.94 0 11.88 0 18 0 C18.33 1.32 18.66 2.64 19 4 C19.639375 3.3503125 20.27875 2.700625 20.9375 2.03125 C25.06153599 -0.70407999 28.16440634 -0.59419988 33 -0.5 C33.7940625 -0.51546875 34.588125 -0.5309375 35.40625 -0.546875 C40.61897466 -0.5121235 43.09687558 0.295714 47 4 C49.15732132 4.08568503 49.15732132 4.08568503 51 3 C51.44915771 2.49823242 51.89831543 1.99646484 52.36108398 1.47949219 C55.37166431 -1.23823711 59.1769835 -0.67810147 63.0625 -0.75 C64.27583008 -0.8428125 64.27583008 -0.8428125 65.51367188 -0.9375 C70.82583134 -1.03876436 74.27267668 0.31993321 78.55078125 3.48046875 C83.37232742 8.25251239 84.1050726 12.79860214 84.24137878 19.29226685 C84.23428353 21.55059686 84.18097543 23.80490472 84.125 26.0625 C84.12305485 27.61132909 84.12562164 29.16017075 84.1328125 30.70898438 C84.14058129 34.47481577 84.08724939 38.23522051 84 42 C85.65 42.33 87.3 42.66 89 43 C89 47.29 89 51.58 89 56 C80.42 56 71.84 56 63 56 C63 52.04 63 48.08 63 44 C63.99 43.34 64.98 42.68 66 42 C66.41764382 39.18725248 66.41764382 39.18725248 66.29296875 35.8984375 C66.28330078 34.68671875 66.27363281 33.475 66.26367188 32.2265625 C66.23853516 30.95554687 66.21339844 29.68453125 66.1875 28.375 C66.17396484 27.09625 66.16042969 25.8175 66.14648438 24.5 C66.11103462 21.33315531 66.05722637 18.16652603 66 15 C62.04 15 58.08 15 54 15 C53.67 24.24 53.34 33.48 53 43 C54.32 43.33 55.64 43.66 57 44 C57 47.96 57 51.92 57 56 C49.08 56 41.16 56 33 56 C33 51.71 33 47.42 33 43 C33.99 43 34.98 43 36 43 C35.67 33.76 35.34 24.52 35 15 C31.37 15 27.74 15 24 15 C23.67 24.24 23.34 33.48 23 43 C23.99 43 24.98 43 26 43 C26 47.29 26 51.58 26 56 C17.42 56 8.84 56 0 56 C0 52.04 0 48.08 0 44 C2.97 43.505 2.97 43.505 6 43 C6 33.1 6 23.2 6 13 C3.03 12.505 3.03 12.505 0 12 C0 8.04 0 4.08 0 0 Z " fill="#C15F9A" transform="translate(447,753)"/>
<path d="M0 0 C5.77977573 -0.22426005 11.55696498 -0.38660686 17.34008789 -0.49438477 C19.30245118 -0.53935391 21.26451792 -0.60055519 23.22583008 -0.67895508 C41.58210108 -1.39377042 41.58210108 -1.39377042 48.78515625 3.9921875 C52.31334931 7.56399495 54.31763976 10.44904682 54.32226562 15.53344727 C54.25716797 16.24428467 54.19207031 16.95512207 54.125 17.6875 C54.09341797 18.42991943 54.06183594 19.17233887 54.02929688 19.93725586 C53.67111442 24.36189161 52.8872857 27.14915551 49.5 30.0625 C47.53125 31.28515625 47.53125 31.28515625 46 32 C47.33397757 35.59147806 48.74983838 38.8843916 51 42 C52.32 42.33 53.64 42.66 55 43 C55 47.29 55 51.58 55 56 C41.79435484 57.3608871 41.79435484 57.3608871 37.9140625 54.41796875 C36.34908393 52.01862316 35.17513774 49.61303919 34 47 C32.81537098 44.8202826 31.60639082 42.65364587 30.375 40.5 C29.82585937 39.4790625 29.27671875 38.458125 28.7109375 37.40625 C27.07918062 34.55930479 27.07918062 34.55930479 23 34 C23 36.97 23 39.94 23 43 C24.98 43.33 26.96 43.66 29 44 C29 47.96 29 51.92 29 56 C19.43 56 9.86 56 0 56 C0 44 0 44 1 43 C2.65 43 4.3 43 6 43 C6 33.1 6 23.2 6 13 C4.35 13 2.7 13 1 13 C0 12 0 12 -0.09765625 9.27734375 C-0.08605469 8.17519531 -0.07445312 7.07304688 -0.0625 5.9375 C-0.05347656 4.83277344 -0.04445313 3.72804688 -0.03515625 2.58984375 C-0.02355469 1.73519531 -0.01195312 0.88054688 0 0 Z " fill="#D8637C" transform="translate(332,753)"/>
<path d="M0 0 C1.57587891 -0.05220703 1.57587891 -0.05220703 3.18359375 -0.10546875 C10.59735004 -0.02299186 15.89398065 1.9764341 21.39794922 7.00439453 C25.35478788 12.87853062 25.08941152 19.22570811 24.87915039 26.11767578 C24.81249092 28.62534148 24.85820971 31.11354683 24.91601562 33.62109375 C24.93079588 45.1364889 24.93079588 45.1364889 21.25146484 50.25 C14.16644177 56.70788294 9.3723078 57.47176307 0.0625 57.75 C-1.50274414 57.85634766 -1.50274414 57.85634766 -3.09960938 57.96484375 C-10.63450078 58.14257552 -15.79428299 56.44403213 -21.39575195 51.29443359 C-25.39056596 45.2774159 -25.12585317 38.73758041 -24.93408203 31.70507812 C-24.8749839 29.1242971 -24.93354782 26.56451201 -25.00390625 23.984375 C-25.03672389 17.68590715 -24.96606366 12.31865807 -21.39355469 6.97314453 C-14.88398313 1.0254741 -8.60175366 -0.28496607 0 0 Z " fill="#CE6189" transform="translate(416.5,751.875)"/>
<path d="M0 0 C5.94 0 11.88 0 18 0 C18.33 1.32 18.66 2.64 19 4 C19.64710938 3.35675781 20.29421875 2.71351563 20.9609375 2.05078125 C24.96225777 -0.64933847 27.89828643 -0.76880769 32.625 -0.8125 C33.36878906 -0.86986328 34.11257813 -0.92722656 34.87890625 -0.98632812 C41.4072567 -1.0811845 46.0161078 1.65850854 50.83203125 5.92260742 C55.20249997 12.12640902 54.12690209 19.28560954 53.6875 26.5625 C53.63223551 28.15933578 53.58206064 29.75635625 53.53710938 31.35351562 C53.41672835 35.24029059 53.2275244 39.1180837 53 43 C55.97 43.495 55.97 43.495 59 44 C59 47.96 59 51.92 59 56 C50.42 56 41.84 56 33 56 C33 51.71 33 47.42 33 43 C33.99 43 34.98 43 36 43 C35.67 33.76 35.34 24.52 35 15 C31.37 15 27.74 15 24 15 C23.67 24.24 23.34 33.48 23 43 C23.99 43 24.98 43 26 43 C26 47.29 26 51.58 26 56 C17.42 56 8.84 56 0 56 C0 52.04 0 48.08 0 44 C2.97 43.505 2.97 43.505 6 43 C6 33.1 6 23.2 6 13 C3.03 12.505 3.03 12.505 0 12 C0 8.04 0 4.08 0 0 Z " fill="#9359D7" transform="translate(729,753)"/>
<path d="M0 0 C8.58 0 17.16 0 26 0 C26 4.29 26 8.58 26 13 C25.01 13 24.02 13 23 13 C23.33 22.24 23.66 31.48 24 41 C28.29 41 32.58 41 37 41 C36.67 32.09 36.34 23.18 36 14 C35.01 13.67 34.02 13.34 33 13 C33 8.71 33 4.42 33 0 C41.58 0 50.16 0 59 0 C59 4.29 59 8.58 59 13 C57.02 13 55.04 13 53 13 C53 22.9 53 32.8 53 43 C55.97 43.495 55.97 43.495 59 44 C59 47.96 59 51.92 59 56 C56.04112541 56.08069658 53.0844341 56.14034665 50.125 56.1875 C49.28324219 56.21263672 48.44148437 56.23777344 47.57421875 56.26367188 C46.76855469 56.27333984 45.96289062 56.28300781 45.1328125 56.29296875 C44.38918457 56.3086792 43.64555664 56.32438965 42.87939453 56.34057617 C41.94909424 56.17199097 41.94909424 56.17199097 41 56 C40.34 55.01 39.68 54.02 39 53 C38.51660156 53.47953125 38.03320312 53.9590625 37.53515625 54.453125 C33.94650857 56.64280833 30.52646368 56.66842466 26.4375 56.75 C25.31504883 56.8428125 25.31504883 56.8428125 24.16992188 56.9375 C17.60313379 57.07140222 13.0113736 54.37556818 8.16577148 50.07958984 C3.8001618 43.87196945 4.873032 36.71548209 5.3125 29.4375 C5.36776449 27.84066422 5.41793936 26.24364375 5.46289062 24.64648438 C5.58327165 20.75970941 5.7724756 16.8819163 6 13 C3.03 12.505 3.03 12.505 0 12 C0 8.04 0 4.08 0 0 Z " fill="#9E5AC8" transform="translate(663,753)"/>
<path d="M0 0 C1.14774902 0.02900391 2.29549805 0.05800781 3.47802734 0.08789062 C11.18516236 0.50645734 17.02813594 1.25144176 22.4921875 7.0859375 C25.75431245 13.39920418 25.73825415 19.31410222 24.0625 26.125 C21.83732347 30.1277963 19.31632853 31.56236911 15.0625 33.125 C7.91574677 34.89573921 0.43608514 36.125 -6.9375 36.125 C-6.6075 38.105 -6.2775 40.085 -5.9375 42.125 C-1.6475 42.125 2.6425 42.125 7.0625 42.125 C7.3925 40.805 7.7225 39.485 8.0625 38.125 C13.0125 38.125 17.9625 38.125 23.0625 38.125 C23.75751464 43.05960392 23.96520787 46.29003132 21.75 50.79296875 C17.40279039 55.97174686 13.53179965 57.29784673 6.9609375 57.96484375 C4.66283675 58.07368212 2.36282402 58.14722258 0.0625 58.1875 C-1.05302246 58.22053223 -2.16854492 58.25356445 -3.31787109 58.28759766 C-10.32739428 58.1499531 -15.80246908 56.88307259 -21.08007812 52.08325195 C-24.84024058 46.09457051 -24.40639736 39.23582722 -24.24121094 32.35327148 C-24.18760274 29.69259915 -24.24068834 27.04882142 -24.3046875 24.38867188 C-24.34129284 16.67569588 -24.33710449 10.27101451 -18.66796875 4.47265625 C-12.7295352 0.24082119 -7.13250208 -0.2687999 0 0 Z " fill="#8957E4" transform="translate(817.9375,751.875)"/>
<path d="M0 0 C5.63735405 -0.22432842 11.27205278 -0.38663559 16.9128418 -0.49438477 C18.82671413 -0.53934312 20.74028266 -0.6005363 22.65307617 -0.67895508 C40.54861165 -1.3936554 40.54861165 -1.3936554 47.73828125 3.94140625 C51.46104126 7.69445363 53.3754746 10.77209841 53.52978516 16.0925293 C53.47870605 16.88699463 53.42762695 17.68145996 53.375 18.5 C53.34067871 19.32862549 53.30635742 20.15725098 53.27099609 21.01098633 C52.78587737 26.37318642 51.58020156 29.8244227 47.625 33.6875 C40.07763502 38.6926988 31.65068821 37.7708534 23 37 C23 38.98 23 40.96 23 43 C24.65 43.33 26.3 43.66 28 44 C28 47.96 28 51.92 28 56 C18.76 56 9.52 56 0 56 C0 51.71 0 47.42 0 43 C1.98 43 3.96 43 6 43 C6 33.1 6 23.2 6 13 C4.02 13 2.04 13 0 13 C0 8.71 0 4.42 0 0 Z " fill="#E2646D" transform="translate(274,753)"/>
<path d="M0 0 C5.63735405 -0.22432842 11.27205278 -0.38663559 16.9128418 -0.49438477 C18.82671413 -0.53934312 20.74028266 -0.6005363 22.65307617 -0.67895508 C40.54861165 -1.3936554 40.54861165 -1.3936554 47.73828125 3.94140625 C51.46112166 7.69453467 53.37517174 10.77210514 53.5300293 16.0925293 C53.47886963 16.88699463 53.42770996 17.68145996 53.375 18.5 C53.33995361 19.32862549 53.30490723 20.15725098 53.26879883 21.01098633 C52.78277354 26.34255234 51.59883183 29.82529008 47.6875 33.6875 C39.91762869 38.84702085 30.90454503 37.74742813 22 37 C22 38.98 22 40.96 22 43 C23.98 43.33 25.96 43.66 28 44 C28 47.96 28 51.92 28 56 C18.76 56 9.52 56 0 56 C0 51.71 0 47.42 0 43 C1.98 43 3.96 43 6 43 C6 33.1 6 23.2 6 13 C4.02 13 2.04 13 0 13 C0 8.71 0 4.42 0 0 Z " fill="#B35CAB" transform="translate(544,753)"/>
<path d="M0 0 C18.48 0 36.96 0 56 0 C56 7.59 56 15.18 56 23 C52.04 23 48.08 23 44 23 C42.8422494 19.52674819 42.93133348 16.63932552 43 13 C41.02 13 39.04 13 37 13 C37 22.9 37 32.8 37 43 C38.98 43 40.96 43 43 43 C43 47.29 43 51.58 43 56 C33.1 56 23.2 56 13 56 C13 52.04 13 48.08 13 44 C15.31 43.34 17.62 42.68 20 42 C20 32.43 20 22.86 20 13 C17.69 13 15.38 13 13 13 C13 16.3 13 19.6 13 23 C8.71 23 4.42 23 0 23 C0 15.41 0 7.82 0 0 Z " fill="#AA5DBA" transform="translate(601,753)"/>


<path d="M0 0 C1.093125 0.00257813 2.18625 0.00515625 3.3125 0.0078125 C4.405625 0.00523437 5.49875 0.00265625 6.625 0 C9.3125 0.1328125 9.3125 0.1328125 10.3125 1.1328125 C10.41221786 3.04739532 10.44330589 4.96563567 10.4453125 6.8828125 C10.44724609 8.63078125 10.44724609 8.63078125 10.44921875 10.4140625 C10.44535156 11.64125 10.44148438 12.8684375 10.4375 14.1328125 C10.44136719 15.36 10.44523437 16.5871875 10.44921875 17.8515625 C10.44792969 19.016875 10.44664062 20.1821875 10.4453125 21.3828125 C10.44418457 22.46046875 10.44305664 23.538125 10.44189453 24.6484375 C10.3125 27.1328125 10.3125 27.1328125 9.3125 28.1328125 C7.502215 28.23160815 5.68797273 28.26252764 3.875 28.2578125 C2.39193359 28.26167969 2.39193359 28.26167969 0.87890625 28.265625 C-1.6875 28.1328125 -1.6875 28.1328125 -3.6875 27.1328125 C-3.71636537 22.82032641 -3.73425255 18.50786488 -3.75 14.1953125 C-3.75837891 12.96361328 -3.76675781 11.73191406 -3.77539062 10.46289062 C-3.77861328 9.29306641 -3.78183594 8.12324219 -3.78515625 6.91796875 C-3.79039307 5.83394775 -3.79562988 4.74992676 -3.80102539 3.63305664 C-3.64295492 0.15176698 -3.49743839 0.17283853 0 0 Z " fill="#FEFBFC" transform="translate(412.6875,766.8671875)"/>











<path d="M0 0 C2.14576637 -0.02685938 4.29162645 -0.04633088 6.4375 -0.0625 C7.63246094 -0.07410156 8.82742188 -0.08570313 10.05859375 -0.09765625 C13 0 13 0 14 1 C14.04092937 3.33297433 14.04241723 5.66705225 14 8 C11.23547967 9.38226016 8.9538637 9.09525387 5.875 9.0625 C4.77929688 9.05347656 3.68359375 9.04445313 2.5546875 9.03515625 C1.29011719 9.01775391 1.29011719 9.01775391 0 9 C0 6.03 0 3.06 0 0 Z " fill="#FCF8FB" transform="translate(566,767)"/>


<path d="M0 0 C1.97909398 -0.02686553 3.95828971 -0.04633375 5.9375 -0.0625 C7.03964844 -0.07410156 8.14179688 -0.08570313 9.27734375 -0.09765625 C12 0 12 0 13 1 C13.125 4.5 13.125 4.5 13 8 C12 9 12 9 9.27734375 9.09765625 C7.62412109 9.08025391 7.62412109 9.08025391 5.9375 9.0625 C4.83277344 9.05347656 3.72804688 9.04445313 2.58984375 9.03515625 C1.30787109 9.01775391 1.30787109 9.01775391 0 9 C0 6.03 0 3.06 0 0 Z " fill="#FEFEFE" transform="translate(355,767)"/>
<path d="M0 0 C1.97909398 -0.02686553 3.95828971 -0.04633375 5.9375 -0.0625 C7.03964844 -0.07410156 8.14179688 -0.08570313 9.27734375 -0.09765625 C12 0 12 0 13 1 C13.04092937 3.33297433 13.04241723 5.66705225 13 8 C10.35541621 9.32229189 8.32238699 9.09677194 5.375 9.0625 C4.37210937 9.05347656 3.36921875 9.04445313 2.3359375 9.03515625 C1.56507813 9.02355469 0.79421875 9.01195312 0 9 C0 6.03 0 3.06 0 0 Z " fill="#FEFDFD" transform="translate(297,767)"/>







<path d="M0 0 C1.65322266 0.01740234 1.65322266 0.01740234 3.33984375 0.03515625 C4.99693359 0.04869141 4.99693359 0.04869141 6.6875 0.0625 C7.54214844 0.07410156 8.39679687 0.08570313 9.27734375 0.09765625 C9.65953142 1.75380282 9.99129477 3.42222649 10.27734375 5.09765625 C8.39260372 6.98239628 5.24987973 6.79097625 2.71484375 7.16015625 C1.51730469 7.33675781 0.31976562 7.51335938 -0.9140625 7.6953125 C-2.30431641 7.89447266 -2.30431641 7.89447266 -3.72265625 8.09765625 C-3.76507348 5.7647085 -3.76358562 3.43063058 -3.72265625 1.09765625 C-2.72265625 0.09765625 -2.72265625 0.09765625 0 0 Z " fill="#F9F7FD" transform="translate(814.72265625,766.90234375)"/>





























</svg>
