<?xml version="1.0" encoding="UTF-8"?>
<svg version="1.1" xmlns="http://www.w3.org/2000/svg" width="1080" height="1080">

<path d="M0 0 C3.14405425 1.39633437 5.29757375 3.03672299 7.73950195 5.44897461 C8.45737381 6.15408676 9.17524567 6.85919891 9.91487122 7.5856781 C10.68159653 8.35017776 11.44832184 9.11467743 12.23828125 9.90234375 C13.03727341 10.69467911 13.83626556 11.48701447 14.6594696 12.30335999 C16.35073491 13.98449912 18.03929258 15.66836592 19.7253418 17.35473633 C22.28204849 19.90710022 24.85426114 22.4430728 27.42773438 24.97851562 C29.07389931 26.61880609 30.71911164 28.26005325 32.36328125 29.90234375 C33.12393387 30.64862534 33.88458649 31.39490692 34.66828918 32.1638031 C45.95066945 43.54163326 52.92376416 56.87881317 53.3125 73.0625 C53.08921684 94.86982159 39.21676821 108.83592168 24.765625 123.2109375 C24.20913773 123.7651236 23.65265045 124.31930969 23.07929993 124.89028931 C20.2435716 127.71284661 17.40134799 130.52820415 14.5456543 133.33056641 C13.4769565 134.38694889 12.40834926 135.44342302 11.33984375 136.5 C10.8465155 136.97980316 10.35318726 137.45960632 9.84490967 137.95394897 C6.30173919 141.47170626 3.10379278 144.66466243 2.875 149.8125 C6.20160456 159.23787959 16.87321592 166.94762766 23.87314987 173.85661888 C26.06405938 176.02059119 28.2503155 178.18916385 30.43521118 180.35920715 C36.64296632 186.52451827 42.85326369 192.68718335 49.08007812 198.83325195 C52.90304179 202.60730978 56.71584078 206.39139003 60.52248001 210.18190956 C61.96269559 211.61232062 63.40653431 213.03909445 64.85425949 214.46190453 C78.74789342 228.12171252 90.79380077 241.01854596 91.4152832 261.53320312 C91.53766092 276.1539782 88.21793902 288.74532768 77.87817383 299.67358398 C76.33377303 301.2105671 74.7761747 302.73437956 73.20703125 304.24609375 C71.96526375 305.47369164 71.96526375 305.47369164 70.69841003 306.72608948 C68.08145966 309.30877425 65.44786227 311.87361827 62.8125 314.4375 C60.17007741 317.02986121 57.53123284 319.62579042 54.89445496 322.22389221 C53.26024746 323.83180636 51.62214535 325.4357743 49.97969055 327.03526306 C49.23849472 327.7602449 48.49729889 328.48522675 47.73364258 329.23217773 C47.08333572 329.86518295 46.43302887 330.49818817 45.76301575 331.15037537 C43.99945215 333.00057477 42.48935871 334.9252394 41 337 C37.71663415 335.56234105 35.53995012 333.79110394 33.01094055 331.26490784 C32.22751785 330.48712479 31.44409515 329.70934174 30.63693237 328.9079895 C29.78648346 328.05349213 28.93603455 327.19899475 28.05981445 326.31860352 C26.7053698 324.96941582 26.7053698 324.96941582 25.32356262 323.5929718 C22.84750076 321.12602761 20.37780839 318.65279745 17.90947366 316.17812467 C15.31684847 313.58042553 12.71933468 310.98762202 10.12260437 308.39402771 C5.75529422 304.03035768 1.39221905 299.66248647 -2.96850586 295.29223633 C-7.98725425 290.26265101 -13.01310184 285.24024636 -18.04279107 280.22160393 C-22.37450389 275.89901994 -26.70224052 271.57248406 -31.0267871 267.24273056 C-33.60322961 264.66319275 -36.1809494 262.08497023 -38.76227379 259.51031685 C-41.65159295 256.62794269 -44.53253425 253.73732662 -47.4128418 250.84594727 C-48.67333344 249.59152832 -48.67333344 249.59152832 -49.95928955 248.31176758 C-78.01020327 220.06249278 -96.62423315 184.92961057 -96.48754883 144.64257812 C-96.08511882 126.5924442 -91.01845846 111.02185171 -83 95 C-82.67628418 94.33774414 -82.35256836 93.67548828 -82.01904297 92.99316406 C-71.98580038 72.57982555 -57.08311397 56.91062937 -41.11328125 41.015625 C-39.91808856 39.8223038 -38.7231212 38.62875687 -37.52836609 37.43499756 C-34.42525232 34.33565149 -31.31914504 31.23932338 -28.21234131 28.14367676 C-25.02576648 24.96744164 -21.84211923 21.78827487 -18.65820312 18.609375 C-12.44161678 12.40342424 -6.22185568 6.2006679 0 0 Z " fill="#F47715" transform="translate(474,356)"/>
<path d="M0 0 C3.31044326 1.44615267 5.50044349 3.24733741 8.05152893 5.79083252 C8.84888962 6.5811084 9.64625031 7.37138428 10.46777344 8.18560791 C11.33378174 9.05409363 12.19979004 9.92257935 13.09204102 10.81738281 C14.01129868 11.73152954 14.93055634 12.64567627 15.87767029 13.58752441 C18.39942143 16.09588205 20.91472502 18.61061206 23.42852139 21.12693882 C25.53576181 23.23525109 27.64597674 25.34057378 29.75614399 27.44595599 C34.74644977 32.42516027 39.73140139 37.40968106 44.71313477 42.39746094 C49.82344267 47.51377721 54.94278431 52.62092108 60.0667749 57.72353101 C64.48351301 62.12252716 68.89428576 66.52744509 73.3005442 70.93693805 C75.92383835 73.56202907 78.54920965 76.18494456 81.18042183 78.80210114 C104.94105904 102.44673121 126.02426145 127.62326802 134 161 C134.34804688 162.19496094 134.69609375 163.38992188 135.0546875 164.62109375 C142.96060882 192.87986212 133.75323493 225.26597251 119.84326172 250.06201172 C118.6519759 252.12172975 117.43059564 254.15866473 116.1875 256.1875 C115.83397461 256.76790039 115.48044922 257.34830078 115.11621094 257.94628906 C106.15928061 272.01706439 94.75937649 283.66311419 82.94702148 295.33422852 C80.29985646 297.94999357 77.66373612 300.57650242 75.02929688 303.20507812 C73.32874954 304.89646149 71.62759878 306.58723842 69.92578125 308.27734375 C68.75986198 309.4368882 68.75986198 309.4368882 67.57038879 310.61985779 C63.41961181 314.71708469 59.19346545 318.66399992 54.75511169 322.4488678 C51.35445686 325.45429773 48.2892183 328.81870001 45.2265625 332.1640625 C43.734375 333.71875 43.734375 333.71875 41 336 C37.55296311 335.71796308 35.83752462 334.2160549 33.4440918 331.83227539 C32.42734627 330.82971458 32.42734627 330.82971458 31.39006042 329.80690002 C30.3055938 328.71332436 30.3055938 328.71332436 29.19921875 327.59765625 C28.44461868 326.84592636 27.69001862 326.09419647 26.91255188 325.31968689 C25.31439116 323.72356889 23.72001771 322.12365118 22.12915039 320.52026367 C19.71752768 318.09272584 17.29052939 315.68141607 14.86132812 313.27148438 C13.30633014 311.71450138 11.75226441 310.15658665 10.19921875 308.59765625 C9.12386116 307.5314077 9.12386116 307.5314077 8.02677917 306.44361877 C-4.44223598 293.80304059 -11.70904604 280.47686255 -12.375 262.625 C-11.90885125 238.06478798 7.21360611 222.60405491 23.38061523 206.71533203 C25.25681359 204.86927626 27.12678612 203.01709171 28.99609375 201.1640625 C29.57000351 200.60361237 30.14391327 200.04316223 30.73521423 199.46572876 C34.54638681 195.6787893 36.63206042 193.08499096 37.5625 187.8125 C36.00531308 177.25823309 23.68091127 168.5352169 16.35550117 161.38856316 C14.02268593 159.10963332 11.69923397 156.82154067 9.37840271 154.53041077 C2.78441241 148.02129701 -3.81455633 141.51755367 -10.4465332 135.04711914 C-14.51824462 131.0732565 -18.56946756 127.07944297 -22.60862923 123.07251167 C-24.13809379 121.56264863 -25.6747904 120.06007062 -27.21920586 118.56550407 C-40.09901517 106.09228578 -49.86821479 93.99779374 -50.34399414 75.39794922 C-50.54257889 56.83731201 -44.71178886 44.98396158 -31.89428711 31.65771484 C-27.13006571 26.79979083 -22.28612176 22.02341633 -17.4375 17.25 C-15.74344068 15.57101844 -14.05007551 13.89133619 -12.35742188 12.2109375 C-8.24624727 8.13251419 -4.12659591 4.06281612 0 0 Z " fill="#F47715" transform="translate(565,265)"/>
<path d="M0 0 C3.14405425 1.39633437 5.29757375 3.03672299 7.73950195 5.44897461 C8.45737381 6.15408676 9.17524567 6.85919891 9.91487122 7.5856781 C10.68159653 8.35017776 11.44832184 9.11467743 12.23828125 9.90234375 C13.03727341 10.69467911 13.83626556 11.48701447 14.6594696 12.30335999 C16.35073491 13.98449912 18.03929258 15.66836592 19.7253418 17.35473633 C22.28204849 19.90710022 24.85426114 22.4430728 27.42773438 24.97851562 C29.07389931 26.61880609 30.71911164 28.26005325 32.36328125 29.90234375 C33.50426018 31.02176613 33.50426018 31.02176613 34.66828918 32.1638031 C45.95066945 43.54163326 52.92376416 56.87881317 53.3125 73.0625 C53.08921684 94.86982159 39.21676821 108.83592168 24.765625 123.2109375 C24.20913773 123.7651236 23.65265045 124.31930969 23.07929993 124.89028931 C20.2435716 127.71284661 17.40134799 130.52820415 14.5456543 133.33056641 C13.4769565 134.38694889 12.40834926 135.44342302 11.33984375 136.5 C10.8465155 136.97980316 10.35318726 137.45960632 9.84490967 137.95394897 C4.84738 142.81950002 4.84738 142.81950002 2.92578125 149.23828125 C3.05339844 149.92277344 3.18101562 150.60726562 3.3125 151.3125 C3.539375 152.529375 3.76625 153.74625 4 155 C-14.2948842 141.67369047 -25.53086377 113.75982364 -29.22436523 92.07373047 C-32.74359562 66.89747956 -30.6486199 36.2095098 -15 15 C-12.5181914 12.20096522 -9.88160688 9.59356127 -7.1875 7 C-6.49462891 6.32066406 -5.80175781 5.64132812 -5.08789062 4.94140625 C-3.39865183 3.28711723 -1.70279016 1.64031714 0 0 Z " fill="#8426B2" transform="translate(474,356)"/>
<path d="M0 0 C19.16856551 13.96271409 29.77998766 42.91139294 33.52734375 65.41796875 C35.41113789 81.18536147 34.97883692 97.38103854 30.640625 112.69042969 C30.20371675 114.26556385 29.80137992 115.85059727 29.4296875 117.44238281 C25.92991315 132.39225226 17.26285614 145.6550587 4 154 C0.5512587 153.60249682 -1.13844335 152.23999 -3.5559082 149.83227539 C-4.23373856 149.16390152 -4.91156891 148.49552765 -5.60993958 147.80690002 C-6.33291733 147.07784958 -7.05589508 146.34879913 -7.80078125 145.59765625 C-8.55538132 144.84592636 -9.30998138 144.09419647 -10.08744812 143.31968689 C-11.68560884 141.72356889 -13.27998229 140.12365118 -14.87084961 138.52026367 C-17.28247232 136.09272584 -19.70947061 133.68141607 -22.13867188 131.27148438 C-23.69366986 129.71450138 -25.24773559 128.15658665 -26.80078125 126.59765625 C-27.51768631 125.88682388 -28.23459137 125.17599152 -28.97322083 124.44361877 C-41.44223598 111.80304059 -48.70904604 98.47686255 -49.375 80.625 C-48.90885125 56.06478798 -29.78639389 40.60405491 -13.61938477 24.71533203 C-11.74318641 22.86927626 -9.87321388 21.01709171 -8.00390625 19.1640625 C-7.42999649 18.60361237 -6.85608673 18.04316223 -6.26478577 17.46572876 C-1.5429787 12.80053817 -1.5429787 12.80053817 0.1953125 6.640625 C0.17210937 5.85171875 0.14890625 5.0628125 0.125 4.25 C0.10695313 3.45078125 0.08890625 2.6515625 0.0703125 1.828125 C0.04710937 1.22484375 0.02390625 0.6215625 0 0 Z " fill="#8426B2" transform="translate(602,447)"/>
<path d="M0 0 C5.94 0 11.88 0 18 0 C18.33 1.32 18.66 2.64 19 4 C19.639375 3.3503125 20.27875 2.700625 20.9375 2.03125 C25.06153599 -0.70407999 28.16440634 -0.59419988 33 -0.5 C33.7940625 -0.51546875 34.588125 -0.5309375 35.40625 -0.546875 C40.61897466 -0.5121235 43.09687558 0.295714 47 4 C49.15732132 4.08568503 49.15732132 4.08568503 51 3 C51.44915771 2.49823242 51.89831543 1.99646484 52.36108398 1.47949219 C55.37166431 -1.23823711 59.1769835 -0.67810147 63.0625 -0.75 C64.27583008 -0.8428125 64.27583008 -0.8428125 65.51367188 -0.9375 C70.82583134 -1.03876436 74.27267668 0.31993321 78.55078125 3.48046875 C83.37232742 8.25251239 84.1050726 12.79860214 84.24137878 19.29226685 C84.23428353 21.55059686 84.18097543 23.80490472 84.125 26.0625 C84.12305485 27.61132909 84.12562164 29.16017075 84.1328125 30.70898438 C84.14058129 34.47481577 84.08724939 38.23522051 84 42 C85.65 42.33 87.3 42.66 89 43 C89 47.29 89 51.58 89 56 C80.42 56 71.84 56 63 56 C63 52.04 63 48.08 63 44 C63.99 43.34 64.98 42.68 66 42 C66.41764382 39.18725248 66.41764382 39.18725248 66.29296875 35.8984375 C66.28330078 34.68671875 66.27363281 33.475 66.26367188 32.2265625 C66.23853516 30.95554687 66.21339844 29.68453125 66.1875 28.375 C66.17396484 27.09625 66.16042969 25.8175 66.14648438 24.5 C66.11103462 21.33315531 66.05722637 18.16652603 66 15 C62.04 15 58.08 15 54 15 C53.67 24.24 53.34 33.48 53 43 C54.32 43.33 55.64 43.66 57 44 C57 47.96 57 51.92 57 56 C49.08 56 41.16 56 33 56 C33 51.71 33 47.42 33 43 C33.99 43 34.98 43 36 43 C35.67 33.76 35.34 24.52 35 15 C31.37 15 27.74 15 24 15 C23.67 24.24 23.34 33.48 23 43 C23.99 43 24.98 43 26 43 C26 47.29 26 51.58 26 56 C17.42 56 8.84 56 0 56 C0 52.04 0 48.08 0 44 C2.97 43.505 2.97 43.505 6 43 C6 33.1 6 23.2 6 13 C3.03 12.505 3.03 12.505 0 12 C0 8.04 0 4.08 0 0 Z " fill="#C15F9A" transform="translate(447,753)"/>
<path d="M0 0 C5.77977573 -0.22426005 11.55696498 -0.38660686 17.34008789 -0.49438477 C19.30245118 -0.53935391 21.26451792 -0.60055519 23.22583008 -0.67895508 C41.58210108 -1.39377042 41.58210108 -1.39377042 48.78515625 3.9921875 C52.31334931 7.56399495 54.31763976 10.44904682 54.32226562 15.53344727 C54.25716797 16.24428467 54.19207031 16.95512207 54.125 17.6875 C54.09341797 18.42991943 54.06183594 19.17233887 54.02929688 19.93725586 C53.67111442 24.36189161 52.8872857 27.14915551 49.5 30.0625 C47.53125 31.28515625 47.53125 31.28515625 46 32 C47.33397757 35.59147806 48.74983838 38.8843916 51 42 C52.32 42.33 53.64 42.66 55 43 C55 47.29 55 51.58 55 56 C41.79435484 57.3608871 41.79435484 57.3608871 37.9140625 54.41796875 C36.34908393 52.01862316 35.17513774 49.61303919 34 47 C32.81537098 44.8202826 31.60639082 42.65364587 30.375 40.5 C29.82585937 39.4790625 29.27671875 38.458125 28.7109375 37.40625 C27.07918062 34.55930479 27.07918062 34.55930479 23 34 C23 36.97 23 39.94 23 43 C24.98 43.33 26.96 43.66 29 44 C29 47.96 29 51.92 29 56 C19.43 56 9.86 56 0 56 C0 44 0 44 1 43 C2.65 43 4.3 43 6 43 C6 33.1 6 23.2 6 13 C4.35 13 2.7 13 1 13 C0 12 0 12 -0.09765625 9.27734375 C-0.08605469 8.17519531 -0.07445312 7.07304688 -0.0625 5.9375 C-0.05347656 4.83277344 -0.04445313 3.72804688 -0.03515625 2.58984375 C-0.02355469 1.73519531 -0.01195312 0.88054688 0 0 Z " fill="#D8637C" transform="translate(332,753)"/>
<path d="M0 0 C1.57587891 -0.05220703 1.57587891 -0.05220703 3.18359375 -0.10546875 C10.59735004 -0.02299186 15.89398065 1.9764341 21.39794922 7.00439453 C25.35478788 12.87853062 25.08941152 19.22570811 24.87915039 26.11767578 C24.81249092 28.62534148 24.85820971 31.11354683 24.91601562 33.62109375 C24.93079588 45.1364889 24.93079588 45.1364889 21.25146484 50.25 C14.16644177 56.70788294 9.3723078 57.47176307 0.0625 57.75 C-1.50274414 57.85634766 -1.50274414 57.85634766 -3.09960938 57.96484375 C-10.63450078 58.14257552 -15.79428299 56.44403213 -21.39575195 51.29443359 C-25.39056596 45.2774159 -25.12585317 38.73758041 -24.93408203 31.70507812 C-24.8749839 29.1242971 -24.93354782 26.56451201 -25.00390625 23.984375 C-25.03672389 17.68590715 -24.96606366 12.31865807 -21.39355469 6.97314453 C-14.88398313 1.0254741 -8.60175366 -0.28496607 0 0 Z " fill="#CE6189" transform="translate(416.5,751.875)"/>
<path d="M0 0 C5.94 0 11.88 0 18 0 C18.33 1.32 18.66 2.64 19 4 C19.64710938 3.35675781 20.29421875 2.71351563 20.9609375 2.05078125 C24.96225777 -0.64933847 27.89828643 -0.76880769 32.625 -0.8125 C33.36878906 -0.86986328 34.11257813 -0.92722656 34.87890625 -0.98632812 C41.4072567 -1.0811845 46.0161078 1.65850854 50.83203125 5.92260742 C55.20249997 12.12640902 54.12690209 19.28560954 53.6875 26.5625 C53.63223551 28.15933578 53.58206064 29.75635625 53.53710938 31.35351562 C53.41672835 35.24029059 53.2275244 39.1180837 53 43 C55.97 43.495 55.97 43.495 59 44 C59 47.96 59 51.92 59 56 C50.42 56 41.84 56 33 56 C33 51.71 33 47.42 33 43 C33.99 43 34.98 43 36 43 C35.67 33.76 35.34 24.52 35 15 C31.37 15 27.74 15 24 15 C23.67 24.24 23.34 33.48 23 43 C23.99 43 24.98 43 26 43 C26 47.29 26 51.58 26 56 C17.42 56 8.84 56 0 56 C0 52.04 0 48.08 0 44 C2.97 43.505 2.97 43.505 6 43 C6 33.1 6 23.2 6 13 C3.03 12.505 3.03 12.505 0 12 C0 8.04 0 4.08 0 0 Z " fill="#9359D7" transform="translate(729,753)"/>
<path d="M0 0 C8.58 0 17.16 0 26 0 C26 4.29 26 8.58 26 13 C25.01 13 24.02 13 23 13 C23.33 22.24 23.66 31.48 24 41 C28.29 41 32.58 41 37 41 C36.67 32.09 36.34 23.18 36 14 C35.01 13.67 34.02 13.34 33 13 C33 8.71 33 4.42 33 0 C41.58 0 50.16 0 59 0 C59 4.29 59 8.58 59 13 C57.02 13 55.04 13 53 13 C53 22.9 53 32.8 53 43 C55.97 43.495 55.97 43.495 59 44 C59 47.96 59 51.92 59 56 C56.04112541 56.08069658 53.0844341 56.14034665 50.125 56.1875 C49.28324219 56.21263672 48.44148437 56.23777344 47.57421875 56.26367188 C46.76855469 56.27333984 45.96289062 56.28300781 45.1328125 56.29296875 C44.38918457 56.3086792 43.64555664 56.32438965 42.87939453 56.34057617 C41.94909424 56.17199097 41.94909424 56.17199097 41 56 C40.34 55.01 39.68 54.02 39 53 C38.51660156 53.47953125 38.03320312 53.9590625 37.53515625 54.453125 C33.94650857 56.64280833 30.52646368 56.66842466 26.4375 56.75 C25.31504883 56.8428125 25.31504883 56.8428125 24.16992188 56.9375 C17.60313379 57.07140222 13.0113736 54.37556818 8.16577148 50.07958984 C3.8001618 43.87196945 4.873032 36.71548209 5.3125 29.4375 C5.36776449 27.84066422 5.41793936 26.24364375 5.46289062 24.64648438 C5.58327165 20.75970941 5.7724756 16.8819163 6 13 C3.03 12.505 3.03 12.505 0 12 C0 8.04 0 4.08 0 0 Z " fill="#9E5AC8" transform="translate(663,753)"/>
<path d="M0 0 C1.14774902 0.02900391 2.29549805 0.05800781 3.47802734 0.08789062 C11.18516236 0.50645734 17.02813594 1.25144176 22.4921875 7.0859375 C25.75431245 13.39920418 25.73825415 19.31410222 24.0625 26.125 C21.83732347 30.1277963 19.31632853 31.56236911 15.0625 33.125 C7.91574677 34.89573921 0.43608514 36.125 -6.9375 36.125 C-6.6075 38.105 -6.2775 40.085 -5.9375 42.125 C-1.6475 42.125 2.6425 42.125 7.0625 42.125 C7.3925 40.805 7.7225 39.485 8.0625 38.125 C13.0125 38.125 17.9625 38.125 23.0625 38.125 C23.75751464 43.05960392 23.96520787 46.29003132 21.75 50.79296875 C17.40279039 55.97174686 13.53179965 57.29784673 6.9609375 57.96484375 C4.66283675 58.07368212 2.36282402 58.14722258 0.0625 58.1875 C-1.05302246 58.22053223 -2.16854492 58.25356445 -3.31787109 58.28759766 C-10.32739428 58.1499531 -15.80246908 56.88307259 -21.08007812 52.08325195 C-24.84024058 46.09457051 -24.40639736 39.23582722 -24.24121094 32.35327148 C-24.18760274 29.69259915 -24.24068834 27.04882142 -24.3046875 24.38867188 C-24.34129284 16.67569588 -24.33710449 10.27101451 -18.66796875 4.47265625 C-12.7295352 0.24082119 -7.13250208 -0.2687999 0 0 Z " fill="#8957E4" transform="translate(817.9375,751.875)"/>
<path d="M0 0 C5.63735405 -0.22432842 11.27205278 -0.38663559 16.9128418 -0.49438477 C18.82671413 -0.53934312 20.74028266 -0.6005363 22.65307617 -0.67895508 C40.54861165 -1.3936554 40.54861165 -1.3936554 47.73828125 3.94140625 C51.46104126 7.69445363 53.3754746 10.77209841 53.52978516 16.0925293 C53.47870605 16.88699463 53.42762695 17.68145996 53.375 18.5 C53.34067871 19.32862549 53.30635742 20.15725098 53.27099609 21.01098633 C52.78587737 26.37318642 51.58020156 29.8244227 47.625 33.6875 C40.07763502 38.6926988 31.65068821 37.7708534 23 37 C23 38.98 23 40.96 23 43 C24.65 43.33 26.3 43.66 28 44 C28 47.96 28 51.92 28 56 C18.76 56 9.52 56 0 56 C0 51.71 0 47.42 0 43 C1.98 43 3.96 43 6 43 C6 33.1 6 23.2 6 13 C4.02 13 2.04 13 0 13 C0 8.71 0 4.42 0 0 Z " fill="#E2646D" transform="translate(274,753)"/>
<path d="M0 0 C5.63735405 -0.22432842 11.27205278 -0.38663559 16.9128418 -0.49438477 C18.82671413 -0.53934312 20.74028266 -0.6005363 22.65307617 -0.67895508 C40.54861165 -1.3936554 40.54861165 -1.3936554 47.73828125 3.94140625 C51.46112166 7.69453467 53.37517174 10.77210514 53.5300293 16.0925293 C53.47886963 16.88699463 53.42770996 17.68145996 53.375 18.5 C53.33995361 19.32862549 53.30490723 20.15725098 53.26879883 21.01098633 C52.78277354 26.34255234 51.59883183 29.82529008 47.6875 33.6875 C39.91762869 38.84702085 30.90454503 37.74742813 22 37 C22 38.98 22 40.96 22 43 C23.98 43.33 25.96 43.66 28 44 C28 47.96 28 51.92 28 56 C18.76 56 9.52 56 0 56 C0 51.71 0 47.42 0 43 C1.98 43 3.96 43 6 43 C6 33.1 6 23.2 6 13 C4.02 13 2.04 13 0 13 C0 8.71 0 4.42 0 0 Z " fill="#B35CAB" transform="translate(544,753)"/>
<path d="M0 0 C18.48 0 36.96 0 56 0 C56 7.59 56 15.18 56 23 C52.04 23 48.08 23 44 23 C42.8422494 19.52674819 42.93133348 16.63932552 43 13 C41.02 13 39.04 13 37 13 C37 22.9 37 32.8 37 43 C38.98 43 40.96 43 43 43 C43 47.29 43 51.58 43 56 C33.1 56 23.2 56 13 56 C13 52.04 13 48.08 13 44 C15.31 43.34 17.62 42.68 20 42 C20 32.43 20 22.86 20 13 C17.69 13 15.38 13 13 13 C13 16.3 13 19.6 13 23 C8.71 23 4.42 23 0 23 C0 15.41 0 7.82 0 0 Z " fill="#AA5DBA" transform="translate(601,753)"/>
<path d="M0 0 C-0.01571045 1.31266846 -0.01571045 1.31266846 -0.03173828 2.65185547 C-0.4273542 40.756179 3.20224177 76.50047348 25.06640625 108.984375 C26 111 26 111 25.75390625 113.125 C25 115 25 115 23.375 117.25 C21.39973475 121.2005305 22.19958688 123.70687506 23 128 C4.7051158 114.67369047 -6.53086377 86.75982364 -10.22436523 65.07373047 C-13.1052307 44.4642836 -12.62782664 20.01293495 -3 1 C-1 0 -1 0 0 0 Z " fill="#571C81" transform="translate(455,383)"/>
<path d="M0 0 C19.16856551 13.96271409 29.77998766 42.91139294 33.52734375 65.41796875 C36.025537 86.32789368 34.58758558 109.82482884 25 129 C24.01 129.33 23.02 129.66 22 130 C22.07001221 129.42386963 22.14002441 128.84773926 22.2121582 128.25415039 C26.51525821 89.77735959 18.5875302 54.88472329 0.14160156 21.24145508 C-1.07590236 18.85097101 -2.17169582 16.55446683 -3 14 C-2.319375 12.88625 -2.319375 12.88625 -1.625 11.75 C0.67269581 7.86159171 0.25949677 4.41144505 0 0 Z " fill="#571C81" transform="translate(602,447)"/>
<path d="M0 0 C1.093125 0.00257813 2.18625 0.00515625 3.3125 0.0078125 C4.405625 0.00523437 5.49875 0.00265625 6.625 0 C9.3125 0.1328125 9.3125 0.1328125 10.3125 1.1328125 C10.41221786 3.04739532 10.44330589 4.96563567 10.4453125 6.8828125 C10.44724609 8.63078125 10.44724609 8.63078125 10.44921875 10.4140625 C10.44535156 11.64125 10.44148438 12.8684375 10.4375 14.1328125 C10.44136719 15.36 10.44523437 16.5871875 10.44921875 17.8515625 C10.44792969 19.016875 10.44664062 20.1821875 10.4453125 21.3828125 C10.44418457 22.46046875 10.44305664 23.538125 10.44189453 24.6484375 C10.3125 27.1328125 10.3125 27.1328125 9.3125 28.1328125 C7.502215 28.23160815 5.68797273 28.26252764 3.875 28.2578125 C2.39193359 28.26167969 2.39193359 28.26167969 0.87890625 28.265625 C-1.6875 28.1328125 -1.6875 28.1328125 -3.6875 27.1328125 C-3.71636537 22.82032641 -3.73425255 18.50786488 -3.75 14.1953125 C-3.75837891 12.96361328 -3.76675781 11.73191406 -3.77539062 10.46289062 C-3.77861328 9.29306641 -3.78183594 8.12324219 -3.78515625 6.91796875 C-3.79039307 5.83394775 -3.79562988 4.74992676 -3.80102539 3.63305664 C-3.64295492 0.15176698 -3.49743839 0.17283853 0 0 Z " fill="#FEFBFC" transform="translate(412.6875,766.8671875)"/>











<path d="M0 0 C2.14576637 -0.02685938 4.29162645 -0.04633088 6.4375 -0.0625 C7.63246094 -0.07410156 8.82742188 -0.08570313 10.05859375 -0.09765625 C13 0 13 0 14 1 C14.04092937 3.33297433 14.04241723 5.66705225 14 8 C11.23547967 9.38226016 8.9538637 9.09525387 5.875 9.0625 C4.77929688 9.05347656 3.68359375 9.04445313 2.5546875 9.03515625 C1.29011719 9.01775391 1.29011719 9.01775391 0 9 C0 6.03 0 3.06 0 0 Z " fill="#FCF8FB" transform="translate(566,767)"/>


<path d="M0 0 C1.97909398 -0.02686553 3.95828971 -0.04633375 5.9375 -0.0625 C7.03964844 -0.07410156 8.14179688 -0.08570313 9.27734375 -0.09765625 C12 0 12 0 13 1 C13.125 4.5 13.125 4.5 13 8 C12 9 12 9 9.27734375 9.09765625 C7.62412109 9.08025391 7.62412109 9.08025391 5.9375 9.0625 C4.83277344 9.05347656 3.72804688 9.04445313 2.58984375 9.03515625 C1.30787109 9.01775391 1.30787109 9.01775391 0 9 C0 6.03 0 3.06 0 0 Z " fill="#FEFEFE" transform="translate(355,767)"/>
<path d="M0 0 C1.97909398 -0.02686553 3.95828971 -0.04633375 5.9375 -0.0625 C7.03964844 -0.07410156 8.14179688 -0.08570313 9.27734375 -0.09765625 C12 0 12 0 13 1 C13.04092937 3.33297433 13.04241723 5.66705225 13 8 C10.35541621 9.32229189 8.32238699 9.09677194 5.375 9.0625 C4.37210937 9.05347656 3.36921875 9.04445313 2.3359375 9.03515625 C1.56507813 9.02355469 0.79421875 9.01195312 0 9 C0 6.03 0 3.06 0 0 Z " fill="#FEFDFD" transform="translate(297,767)"/>







<path d="M0 0 C1.65322266 0.01740234 1.65322266 0.01740234 3.33984375 0.03515625 C4.99693359 0.04869141 4.99693359 0.04869141 6.6875 0.0625 C7.54214844 0.07410156 8.39679687 0.08570313 9.27734375 0.09765625 C9.65953142 1.75380282 9.99129477 3.42222649 10.27734375 5.09765625 C8.39260372 6.98239628 5.24987973 6.79097625 2.71484375 7.16015625 C1.51730469 7.33675781 0.31976562 7.51335938 -0.9140625 7.6953125 C-2.30431641 7.89447266 -2.30431641 7.89447266 -3.72265625 8.09765625 C-3.76507348 5.7647085 -3.76358562 3.43063058 -3.72265625 1.09765625 C-2.72265625 0.09765625 -2.72265625 0.09765625 0 0 Z " fill="#F9F7FD" transform="translate(814.72265625,766.90234375)"/>
























<path d="M0 0 C0.33 0 0.66 0 1 0 C0.67 3.96 0.34 7.92 0 12 C-3 8 -3 8 -2.8125 5.4375 C-2 3 -2 3 0 0 Z " fill="#732598" transform="translate(456,376)"/>




</svg>
