<?xml version="1.0" encoding="UTF-8"?>
<svg xmlns="http://www.w3.org/2000/svg" viewBox="320 210 440 520" style="background: transparent;">

<path d="M0 0 C3.14405425 1.39633437 5.29757375 3.03672299 7.73950195 5.44897461 C8.45737381 6.15408676 9.17524567 6.85919891 9.91487122 7.5856781 C10.68159653 8.35017776 11.44832184 9.11467743 12.23828125 9.90234375 C13.03727341 10.69467911 13.83626556 11.48701447 14.6594696 12.30335999 C16.35073491 13.98449912 18.03929258 15.66836592 19.7253418 17.35473633 C22.28204849 19.90710022 24.85426114 22.4430728 27.42773438 24.97851562 C29.07389931 26.61880609 30.71911164 28.26005325 32.36328125 29.90234375 C33.12393387 30.64862534 33.88458649 31.39490692 34.66828918 32.1638031 C45.95066945 43.54163326 52.92376416 56.87881317 53.3125 73.0625 C53.08921684 94.86982159 39.21676821 108.83592168 24.765625 123.2109375 C24.20913773 123.7651236 23.65265045 124.31930969 23.07929993 124.89028931 C20.2435716 127.71284661 17.40134799 130.52820415 14.5456543 133.33056641 C13.4769565 134.38694889 12.40834926 135.44342302 11.33984375 136.5 C10.8465155 136.97980316 10.35318726 137.45960632 9.84490967 137.95394897 C6.30173919 141.47170626 3.10379278 144.66466243 2.875 149.8125 C6.20160456 159.23787959 16.87321592 166.94762766 23.87314987 173.85661888 C26.06405938 176.02059119 28.2503155 178.18916385 30.43521118 180.35920715 C36.64296632 186.52451827 42.85326369 192.68718335 49.08007812 198.83325195 C52.90304179 202.60730978 56.71584078 206.39139003 60.52248001 210.18190956 C61.96269559 211.61232062 63.40653431 213.03909445 64.85425949 214.46190453 C78.74789342 228.12171252 90.79380077 241.01854596 91.4152832 261.53320312 C91.53766092 276.1539782 88.21793902 288.74532768 77.87817383 299.67358398 C76.33377303 301.2105671 74.7761747 302.73437956 73.20703125 304.24609375 C71.96526375 305.47369164 71.96526375 305.47369164 70.69841003 306.72608948 C68.08145966 309.30877425 65.44786227 311.87361827 62.8125 314.4375 C60.17007741 317.02986121 57.53123284 319.62579042 54.89445496 322.22389221 C53.26024746 323.83180636 51.62214535 325.4357743 49.97969055 327.03526306 C49.23849472 327.7602449 48.49729889 328.48522675 47.73364258 329.23217773 C47.08333572 329.86518295 46.43302887 330.49818817 45.76301575 331.15037537 C43.99945215 333.00057477 42.48935871 334.9252394 41 337 C37.71663415 335.56234105 35.53995012 333.79110394 33.01094055 331.26490784 C32.22751785 330.48712479 31.44409515 329.70934174 30.63693237 328.9079895 C29.78648346 328.05349213 28.93603455 327.19899475 28.05981445 326.31860352 C26.7053698 324.96941582 26.7053698 324.96941582 25.32356262 323.5929718 C22.84750076 321.12602761 20.37780839 318.65279745 17.90947366 316.17812467 C15.31684847 313.58042553 12.71933468 310.98762202 10.12260437 308.39402771 C5.75529422 304.03035768 1.39221905 299.66248647 -2.96850586 295.29223633 C-7.98725425 290.26265101 -13.01310184 285.24024636 -18.04279107 280.22160393 C-22.37450389 275.89901994 -26.70224052 271.57248406 -31.0267871 267.24273056 C-33.60322961 264.66319275 -36.1809494 262.08497023 -38.76227379 259.51031685 C-41.65159295 256.62794269 -44.53253425 253.73732662 -47.4128418 250.84594727 C-48.67333344 249.59152832 -48.67333344 249.59152832 -49.95928955 248.31176758 C-78.01020327 220.06249278 -96.62423315 184.92961057 -96.48754883 144.64257812 C-96.08511882 126.5924442 -91.01845846 111.02185171 -83 95 C-82.67628418 94.33774414 -82.35256836 93.67548828 -82.01904297 92.99316406 C-71.98580038 72.57982555 -57.08311397 56.91062937 -41.11328125 41.015625 C-39.91808856 39.8223038 -38.7231212 38.62875687 -37.52836609 37.43499756 C-34.42525232 34.33565149 -31.31914504 31.23932338 -28.21234131 28.14367676 C-25.02576648 24.96744164 -21.84211923 21.78827487 -18.65820312 18.609375 C-12.44161678 12.40342424 -6.22185568 6.2006679 0 0 Z " fill="#F47715" transform="translate(474,356)"/>
<path d="M0 0 C3.31044326 1.44615267 5.50044349 3.24733741 8.05152893 5.79083252 C8.84888962 6.5811084 9.64625031 7.37138428 10.46777344 8.18560791 C11.33378174 9.05409363 12.19979004 9.92257935 13.09204102 10.81738281 C14.01129868 11.73152954 14.93055634 12.64567627 15.87767029 13.58752441 C18.39942143 16.09588205 20.91472502 18.61061206 23.42852139 21.12693882 C25.53576181 23.23525109 27.64597674 25.34057378 29.75614399 27.44595599 C34.74644977 32.42516027 39.73140139 37.40968106 44.71313477 42.39746094 C49.82344267 47.51377721 54.94278431 52.62092108 60.0667749 57.72353101 C64.48351301 62.12252716 68.89428576 66.52744509 73.3005442 70.93693805 C75.92383835 73.56202907 78.54920965 76.18494456 81.18042183 78.80210114 C104.94105904 102.44673121 126.02426145 127.62326802 134 161 C134.34804688 162.19496094 134.69609375 163.38992188 135.0546875 164.62109375 C142.96060882 192.87986212 133.75323493 225.26597251 119.84326172 250.06201172 C118.6519759 252.12172975 117.43059564 254.15866473 116.1875 256.1875 C115.83397461 256.76790039 115.48044922 257.34830078 115.11621094 257.94628906 C106.15928061 272.01706439 94.75937649 283.66311419 82.94702148 295.33422852 C80.29985646 297.94999357 77.66373612 300.57650242 75.02929688 303.20507812 C73.32874954 304.89646149 71.62759878 306.58723842 69.92578125 308.27734375 C68.75986198 309.4368882 68.75986198 309.4368882 67.57038879 310.61985779 C63.41961181 314.71708469 59.19346545 318.66399992 54.75511169 322.4488678 C51.35445686 325.45429773 48.2892183 328.81870001 45.2265625 332.1640625 C43.734375 333.71875 43.734375 333.71875 41 336 C37.55296311 335.71796308 35.83752462 334.2160549 33.4440918 331.83227539 C32.42734627 330.82971458 32.42734627 330.82971458 31.39006042 329.80690002 C30.3055938 328.71332436 30.3055938 328.71332436 29.19921875 327.59765625 C28.44461868 326.84592636 27.69001862 326.09419647 26.91255188 325.31968689 C25.31439116 323.72356889 23.72001771 322.12365118 22.12915039 320.52026367 C19.71752768 318.09272584 17.29052939 315.68141607 14.86132812 313.27148438 C13.30633014 311.71450138 11.75226441 310.15658665 10.19921875 308.59765625 C9.12386116 307.5314077 9.12386116 307.5314077 8.02677917 306.44361877 C-4.44223598 293.80304059 -11.70904604 280.47686255 -12.375 262.625 C-11.90885125 238.06478798 7.21360611 222.60405491 23.38061523 206.71533203 C25.25681359 204.86927626 27.12678612 203.01709171 28.99609375 201.1640625 C29.57000351 200.60361237 30.14391327 200.04316223 30.73521423 199.46572876 C34.54638681 195.6787893 36.63206042 193.08499096 37.5625 187.8125 C36.00531308 177.25823309 23.68091127 168.5352169 16.35550117 161.38856316 C14.02268593 159.10963332 11.69923397 156.82154067 9.37840271 154.53041077 C2.78441241 148.02129701 -3.81455633 141.51755367 -10.4465332 135.04711914 C-14.51824462 131.0732565 -18.56946756 127.07944297 -22.60862923 123.07251167 C-24.13809379 121.56264863 -25.6747904 120.06007062 -27.21920586 118.56550407 C-40.09901517 106.09228578 -49.86821479 93.99779374 -50.34399414 75.39794922 C-50.54257889 56.83731201 -44.71178886 44.98396158 -31.89428711 31.65771484 C-27.13006571 26.79979083 -22.28612176 22.02341633 -17.4375 17.25 C-15.74344068 15.57101844 -14.05007551 13.89133619 -12.35742188 12.2109375 C-8.24624727 8.13251419 -4.12659591 4.06281612 0 0 Z " fill="#F47715" transform="translate(565,265)"/>
<path d="M0 0 C3.14405425 1.39633437 5.29757375 3.03672299 7.73950195 5.44897461 C8.45737381 6.15408676 9.17524567 6.85919891 9.91487122 7.5856781 C10.68159653 8.35017776 11.44832184 9.11467743 12.23828125 9.90234375 C13.03727341 10.69467911 13.83626556 11.48701447 14.6594696 12.30335999 C16.35073491 13.98449912 18.03929258 15.66836592 19.7253418 17.35473633 C22.28204849 19.90710022 24.85426114 22.4430728 27.42773438 24.97851562 C29.07389931 26.61880609 30.71911164 28.26005325 32.36328125 29.90234375 C33.50426018 31.02176613 33.50426018 31.02176613 34.66828918 32.1638031 C45.95066945 43.54163326 52.92376416 56.87881317 53.3125 73.0625 C53.08921684 94.86982159 39.21676821 108.83592168 24.765625 123.2109375 C24.20913773 123.7651236 23.65265045 124.31930969 23.07929993 124.89028931 C20.2435716 127.71284661 17.40134799 130.52820415 14.5456543 133.33056641 C13.4769565 134.38694889 12.40834926 135.44342302 11.33984375 136.5 C10.8465155 136.97980316 10.35318726 137.45960632 9.84490967 137.95394897 C4.84738 142.81950002 4.84738 142.81950002 2.92578125 149.23828125 C3.05339844 149.92277344 3.18101562 150.60726562 3.3125 151.3125 C3.539375 152.529375 3.76625 153.74625 4 155 C-14.2948842 141.67369047 -25.53086377 113.75982364 -29.22436523 92.07373047 C-32.74359562 66.89747956 -30.6486199 36.2095098 -15 15 C-12.5181914 12.20096522 -9.88160688 9.59356127 -7.1875 7 C-6.49462891 6.32066406 -5.80175781 5.64132812 -5.08789062 4.94140625 C-3.39865183 3.28711723 -1.70279016 1.64031714 0 0 Z " fill="#8426B2" transform="translate(474,356)"/>
<path d="M0 0 C19.16856551 13.96271409 29.77998766 42.91139294 33.52734375 65.41796875 C35.41113789 81.18536147 34.97883692 97.38103854 30.640625 112.69042969 C30.20371675 114.26556385 29.80137992 115.85059727 29.4296875 117.44238281 C25.92991315 132.39225226 17.26285614 145.6550587 4 154 C0.5512587 153.60249682 -1.13844335 152.23999 -3.5559082 149.83227539 C-4.23373856 149.16390152 -4.91156891 148.49552765 -5.60993958 147.80690002 C-6.33291733 147.07784958 -7.05589508 146.34879913 -7.80078125 145.59765625 C-8.55538132 144.84592636 -9.30998138 144.09419647 -10.08744812 143.31968689 C-11.68560884 141.72356889 -13.27998229 140.12365118 -14.87084961 138.52026367 C-17.28247232 136.09272584 -19.70947061 133.68141607 -22.13867188 131.27148438 C-23.69366986 129.71450138 -25.24773559 128.15658665 -26.80078125 126.59765625 C-27.51768631 125.88682388 -28.23459137 125.17599152 -28.97322083 124.44361877 C-41.44223598 111.80304059 -48.70904604 98.47686255 -49.375 80.625 C-48.90885125 56.06478798 -29.78639389 40.60405491 -13.61938477 24.71533203 C-11.74318641 22.86927626 -9.87321388 21.01709171 -8.00390625 19.1640625 C-7.42999649 18.60361237 -6.85608673 18.04316223 -6.26478577 17.46572876 C-1.5429787 12.80053817 -1.5429787 12.80053817 0.1953125 6.640625 C0.17210937 5.85171875 0.14890625 5.0628125 0.125 4.25 C0.10695313 3.45078125 0.08890625 2.6515625 0.0703125 1.828125 C0.04710937 1.22484375 0.02390625 0.6215625 0 0 Z " fill="#8426B2" transform="translate(602,447)"/>









<path d="M0 0 C-0.01571045 1.31266846 -0.01571045 1.31266846 -0.03173828 2.65185547 C-0.4273542 40.756179 3.20224177 76.50047348 25.06640625 108.984375 C26 111 26 111 25.75390625 113.125 C25 115 25 115 23.375 117.25 C21.39973475 121.2005305 22.19958688 123.70687506 23 128 C4.7051158 114.67369047 -6.53086377 86.75982364 -10.22436523 65.07373047 C-13.1052307 44.4642836 -12.62782664 20.01293495 -3 1 C-1 0 -1 0 0 0 Z " fill="#571C81" transform="translate(455,383)"/>
<path d="M0 0 C19.16856551 13.96271409 29.77998766 42.91139294 33.52734375 65.41796875 C36.025537 86.32789368 34.58758558 109.82482884 25 129 C24.01 129.33 23.02 129.66 22 130 C22.07001221 129.42386963 22.14002441 128.84773926 22.2121582 128.25415039 C26.51525821 89.77735959 18.5875302 54.88472329 0.14160156 21.24145508 C-1.07590236 18.85097101 -2.17169582 16.55446683 -3 14 C-2.319375 12.88625 -2.319375 12.88625 -1.625 11.75 C0.67269581 7.86159171 0.25949677 4.41144505 0 0 Z " fill="#571C81" transform="translate(602,447)"/>



















































<path d="M0 0 C0.33 0 0.66 0 1 0 C0.67 3.96 0.34 7.92 0 12 C-3 8 -3 8 -2.8125 5.4375 C-2 3 -2 3 0 0 Z " fill="#732598" transform="translate(456,376)"/>




</svg>